<svg id="Groupe_906" data-name="Groupe 906" xmlns="http://www.w3.org/2000/svg" width="500" height="500" viewBox="0 0 500 500">
  <path id="Tracé_1857" data-name="Tracé 1857" d="M500,250c0,138.031-111.969,250-250,250S0,388.123,0,250,111.969,0,250,0,500,111.877,500,250Z" fill="#f03d2e"/>
  <path id="Tracé_1858" data-name="Tracé 1858" d="M311.173,152.95V27.318H278.237V158.6L229.869,26.93H194.81L162.1,115.925V90.743H102.323v32.6h26.84v17.046c-28.574,33.594-89.579,11.235-87.957-33.539C40.926,79.286,64.523,56.54,91.7,56.872a50.387,50.387,0,0,1,35.675,14.666l23.261-23.023a83.9,83.9,0,0,0-117.929-.056c-71.294,71.506,25.61,183.855,108.2,125.079l-4.418,12.01h35.06l40.82-110.965,19.794,53.795H217.176l-1.565,4.87L207.5,158.817h35.787l9.841,26.676H392.476v-32.6h-81.3Z" transform="translate(45.687 142.873)" fill="#f6f5f3"/>
</svg>
