<svg fill="none" height="25" viewBox="0 0 197 25" width="197" xmlns="http://www.w3.org/2000/svg" xmlns:xlink="http://www.w3.org/1999/xlink"><clipPath id="a"><path d="m.27002 0h196.73v24.9486h-196.73z"/></clipPath><g clip-path="url(#a)" fill="#aca297"><path d="m154.052.0115773c-4.702-.1568003-9.785 2.5494527-12.195 7.6425527-1.497 2.87467-2.637 6.07457-3.396 9.21637-.068.2788-.131.5556-.189.8324-.076.4472-.082 1.0202-.041 1.6048.186 2.4739 2.383 5.4628 6.001 5.6332h4.293c4.701.1568 9.782-2.5495 12.194-7.6426 1.496-2.8766 2.637-6.0784 3.395-9.21829.068-.27876.132-.55751.19-.8324.078-.44717.083-1.02017.041-1.60478-.186-2.47396-2.383-5.462838-6.001-5.6312527zm-80.6067.2284247 1.9222 24.458898h3.8542s-.0155 0-.0213 0h.2265c.7666-.0232 1.4519-.424 1.8584-1.0337h.0019l15.7168-23.425198h-4.0652l-11.2586 16.814398-1.3202-16.814398h-6.9166zm26.3676 0-9.0189 24.458898h6.9243l9.0147-24.458898zm16.2451 0c-6.218.075497-8.966 6.994058-5.569 11.427098 1.723 2.1042 4.185 4.2878 5.575 6.5914.881 1.2466-.062 3.3237-1.744 3.345h-10.98l-1.136 3.0954h13.903c5.449-.0155 9.135-6.4327 5.48-11.3535-1.688-2.4933-4.365-4.19489-5.947-6.63013-.941-1.27183.006-3.35669 1.705-3.37798h10.22l1.14-3.095352h-12.643zm17.432 0-9.015 24.458898h6.921l9.018-24.458898zm37.371 0-9.056 24.458898h3.566l6.241-16.857.031.30199 5.606 15.13991c.335.7956 1.107 1.3667 2.013 1.4151h3.262l9.058-24.458898h-3.566l-6.121 16.529798-6.516-16.529798zm-15.229 2.301668c1.305.10067 2.342 1.19827 2.342 2.5301.01.32715-.046.65043-.168.94661l-4.575 12.45692c-.923 2.3907-3.068 3.8561-5.615 3.9297h-.676c-1.305-.1007-2.342-1.1983-2.342-2.5301-.01-.3272.048-.6563.17-.9486l4.572-12.45688c.924-2.39072 3.071-3.85225 5.622-3.92581h.672z"/><path d="m9.28893.239973-9.01891 24.458927h7.35025l4.31293-11.6981h8.7499l-4.313 11.6981h5.7435c.9718 0 1.8061-.6137 2.1449-1.4693.0039-.0116.0077-.0155.0116-.0232l8.4692-22.966427h-7.3503l-3.4709 9.417687h-8.7498l3.4689-9.417687zm28.12147 0-9.017 24.458927h7.3483l9.017-24.458927zm12.3485 0-9.017 24.458927h7.3483l3.4573-9.381 1.8371-1.4092 4.8744 9.4506v-.0116c.0096.0116.0116.0155.0155.0232.3987.8285 1.2776 1.3764 2.2474 1.3105-.0174 0-.0368.0116-.0561.0116h6.241l-7.7626-15.05276 12.2421-9.402203h-5.4919l-11.9788 9.197003 3.3916-9.197003h-7.3483z"/><path d="m197 2.40233c0 1.36281-1.069 2.43137-2.461 2.43137-1.391 0-2.474-1.06856-2.474-2.43137 0-1.3628 1.098-2.40233 2.474-2.40233 1.377 0 2.461 1.06856 2.461 2.40233zm-4.321 0c0 1.0705.79 1.91838 1.874 1.91838s1.831-.84981 1.831-1.90483c0-1.05501-.776-1.933865-1.845-1.933865-1.068 0-1.86.865305-1.86 1.918385m1.479 1.26214h-.556v-2.40233c.219-.04452.527-.07356.924-.07356.453 0 .658.07356.834.17616.134.10259.234.29424.234.52847 0 .26327-.205.46847-.497.55558v.02903c.234.08711.368.26327.439.58462.074.3678.116.51298.175.60203h-.601c-.073-.08711-.116-.30779-.189-.58461-.045-.26327-.19-.38135-.498-.38135h-.263v.96596zm.014-1.3628h.263c.308 0 .557-.10067.557-.35039 0-.21874-.16-.36586-.513-.36586-.145 0-.247.01355-.307.02903v.68915z"/></g></svg>