<svg fill="none" height="24" viewBox="0 0 114 24" width="114" xmlns="http://www.w3.org/2000/svg" xmlns:xlink="http://www.w3.org/1999/xlink"><clipPath id="a"><path d="m0 .242188h114v23.6016h-114z"/></clipPath><g clip-path="url(#a)"><path d="m61.6967 1.71223h3.9504v21.14187l-13.344-12.4215v11.7807h-3.9503v-21.08834l13.3439 12.43974zm-19.5899 10.28647c0 6.1037-4.9643 11.0694-11.0666 11.0694-6.1037 0-11.0681-4.9657-11.0681-11.0694 0-6.10373 4.9644-11.069501 11.0681-11.069501 6.1023 0 11.0666 4.965771 11.0666 11.069501zm-4.056 0c0-3.91519-3.1504-7.10082-7.0289-7.10082-3.8786 0-7.0107 3.18563-7.0107 7.10082 0 3.9151 3.149 7.1008 7.0107 7.1008 3.8785 0 7.0275-3.1857 7.0275-7.1008zm-24.8218.1774c-1.0506-.8013-2.4378-1.4407-4.48408-2.0998-4.00388-1.28158-4.00388-2.27727-4.00388-2.77582 0-1.13934 1.26327-2.31389 3.3983-2.31389 1.79703 0 3.18566.89007 3.70106 1.28159l.2845.21406 3.1857-2.15474-.3564-.40842c-.1056-.12533-2.5617-2.989881-6.83175-2.989881-2.04772 0-3.93207.659101-5.30237 1.850551-1.3703 1.19285-2.153332 2.83074-2.153332 4.53763 0 1.81675.801342 3.34622 2.365992 4.53902 1.05061.8 2.43782 1.4408 4.48412 2.0984 4.00384 1.2647 4.00384 2.2787 4.00384 2.7773 0 1.1393-1.2632 2.3138-3.39825 2.3138-1.79704 0-3.18565-.89-3.7011-1.2815l-.28448-.2141-3.185644 2.1547.356314.4085c.10703.1239 2.56316 2.9715 6.81491 2.9715 2.04625 0 3.93205-.6577 5.30235-1.8505 1.3703-1.1929 2.1519-2.8477 2.1519-4.5376 0-1.7985-.7816-3.3096-2.3477-4.5208zm58.6992-.0887c0-6.10367 4.9644-11.06944 11.0681-11.06944 6.1023 0 11.0666 4.96577 11.0666 11.06944 0 6.1037-4.9643 11.0695-11.0666 11.0695-6.1037 0-11.0681-4.9658-11.0681-11.0695zm4.0391 0c0 3.9152 3.149 7.1008 7.0107 7.1008 3.8785 0 7.0106-3.1856 7.0106-7.1008 0-3.91513-3.149-7.10218-7.0106-7.10218-3.8617 0-7.0107 3.18565-7.0107 7.10078zm24.8217-.1971c1.049.8027 2.437 1.4421 4.484 2.1012 4.003 1.2816 4.003 2.2773 4.003 2.7758 0 1.1393-1.264 2.3139-3.399 2.3139-1.797 0-3.184-.8901-3.701-1.2816l-.284-.2126-3.1844 2.1533.3549.4084c.107.1253 2.5635 2.9716 6.8165 2.9716 2.045 0 3.93-.6577 5.301-1.8506 1.37-1.1914 2.153-2.8293 2.153-4.5376 0-1.8153-.801-3.3462-2.366-4.5376-1.051-.8014-2.438-1.4422-4.484-2.0999-4.004-1.28153-4.004-2.27863-4.004-2.77718 0-1.13793 1.263-2.31248 3.398-2.31248 1.797 0 3.186.89007 3.701 1.28158l.285.21266 3.186-2.15333-.357-.40842c-.107-.12534-2.563-2.971574-6.815-2.971574-2.046 0-3.932.657684-5.302 1.849134-1.3703 1.19286-2.1519 2.84764-2.1519 4.53905.017 1.81533.7999 3.34476 2.3659 4.53766z" fill="#aca297"/></g></svg>