<svg fill="none" height="22" viewBox="0 0 160 22" width="160" xmlns="http://www.w3.org/2000/svg" xmlns:xlink="http://www.w3.org/1999/xlink"><clipPath id="a"><path d="m0 0h160v22h-160z"/></clipPath><g clip-path="url(#a)" fill="#aca297"><path d="m11.84 5.52607c-.1867-.02607-.3734-.02607-.56-.02607-.1867 0-.4 0-.56.02607l-.5867-5.4739373c.3733-.0260663.7733-.0521327 1.1467-.0521327.3733 0 .7733.0260664 1.1466.0521327z"/><path d="m9.51977 5.78683c-.18667.05213-.37334.13033-.53334.18246-.18666.0782-.34666.1564-.50666.2346l-2.72-4.82227c.34666-.18247.66666-.33887 1.04-.495263.34666-.156399.72-.260664 1.06666-.390996z"/><path d="m7.62657 6.80332c-.13333.13033-.29333.26066-.42667.39099-.13333.13033-.26666.26066-.37333.41706l-4.42667-3.41469c.24-.28673.48-.57346.77334-.86019.26666-.26066.53333-.52133.82666-.75592z"/><path d="m6.26676 8.47168c-.08.1564-.16.33886-.24.52133-.08.18246-.13334.36493-.18667.52133l-5.413332-1.53792c.106666-.36493.24-.70379.373333-1.06872.133333-.33886.293329-.67772.479999-1.01659z"/><path d="m5.65333 10.5049c-.02666.1824-.02666.3649-.02666.5474 0 .1824 0 .3909.02666.5473l-5.5999967.5735c-.0266666-.3649-.0533333-.7559-.0533333-1.1208 0-.365.0266667-.756.0533333-1.1209z"/><path d="m5.92017 12.7463c.05333.1825.13333.365.18667.5214.08.1824.16.3388.24.4952l-4.93334 2.6588c-.18666-.3389-.34666-.6517-.506664-1.0166-.16-.3389-.266667-.7038-.4-1.0426z"/><path d="m6.93328 14.5972c.13333.1303.26667.2867.4.417.13333.1304.26667.2607.42667.365l-3.49334 4.327c-.29333-.2346-.58666-.4692-.88-.756-.26666-.2606-.53333-.5213-.77333-.808z"/><path d="m8.63981 15.9526c.16.0782.34667.1564.50667.2346.18666.0782.37333.1304.53333.1825l-1.57333 5.2915c-.37334-.1043-.72-.2346-1.09334-.365-.34666-.1303-.69333-.2867-1.04-.4692z"/><path d="m10.6667 16.4739c.1867.026.3734.026.56.026.1867 0 .4 0 .56-.026l.5867 5.4739c-.3733.0261-.7733.0521-1.1467.0521-.3733 0-.7733-.026-1.1466-.0521z"/><path d="m12.9868 16.2132c.1867-.0521.3733-.1303.5333-.1825.1867-.0782.3467-.1564.5067-.2346l2.7467 4.7963c-.3467.1824-.6667.3388-1.04.4952-.3467.1564-.72.2607-1.0667.391z"/><path d="m14.8799 15.1967c.1333-.1303.2933-.2606.4267-.391.1333-.1303.2666-.2867.3733-.417l4.4267 3.3886c-.24.2867-.4801.5735-.7467.8602-.2667.2606-.56.5213-.8267.7559z"/><path d="m16.2402 13.5286c.08-.1564.16-.3389.24-.4953.08-.1825.1334-.3389.1867-.5213l5.4133 1.5379c-.1066.3649-.24.7038-.3733 1.0687-.1333.3389-.2933.6777-.48 1.0166z"/><path d="m16.8799 11.5735c.0266-.1824.0267-.3649.0267-.5474 0-.1824-.0001-.391-.0267-.5474l5.6-.57343c.0267.36493.0533.75593.0533 1.12083 0 .365-.0266.756-.0533 1.1209z"/><path d="m16.5868 9.30573c-.0533-.18247-.1333-.36493-.1866-.52133-.08-.18246-.16-.33886-.24-.49526l4.9333-2.65877c.1867.33886.3467.65166.5067 1.01659.16.33886.2666.70379.4 1.04265z"/><path d="m15.5732 7.48108c-.1333-.13034-.2666-.28673-.4-.41707-.1333-.13033-.2666-.26066-.4266-.36493l3.4666-4.32701c.2934.2346.5867.46919.88.75592.2667.26067.5334.52133.7734.80806z"/><path d="m13.8665 6.12552c-.16-.0782-.3467-.1564-.5334-.23459-.1866-.0782-.3733-.13034-.5333-.18247l1.5733-5.291468c.3734.104266.72.234597 1.0934.364929.3466.130332.6933.286729 1.04.469199z"/><path d="m71.2802 20.41h5.1734v-14.75358h7.36v-3.96208h-19.92v3.96208h7.3866z"/><path clip-rule="evenodd" d="m105.813 10.8696c0 5.5782 4.427 10.0356 11.947 10.0356s11.947-4.4574 11.947-10.0356c0-5.57819-4.427-9.77487-11.947-9.77487s-11.947 4.04028-11.947 9.77487zm5.974.391c0-3.38862 1.28-6.36019 5.92-6.41232 4.693-.05213 6.56 2.9455 6.293 6.30802-.24 3.128-1.68 5.8389-6.293 5.8389-4.614 0-5.92-2.7109-5.92-5.7346z" fill-rule="evenodd"/><path d="m131.227 20.4099h5.173v-11.93837h.08l9.92 11.93837h5.973v-18.74169l-5.253.02607v12.19902h-.053l-9.947-12.19902h-5.893z"/><path d="m25.1733 20.436h16.24v-3.9882h-11.0666v-14.77959h-5.1734z"/><path d="m62.7467 1.66821h-5.1733v11.46919c0 2.8673-1.6534 3.9882-5.4667 3.9882s-5.44-1.1209-5.44-3.9882v-11.46919h-5.1467v11.46919c0 5.2393 4.0534 7.7678 10.5867 7.7678s10.6133-2.5545 10.6133-7.7678v-11.46919z"/><path clip-rule="evenodd" d="m84.9334 20.4359h4.8v-7.2986h7.7333c2-.026 2.3734.9384 2.6933 2.9195.4 2.4502.747 4.4573 2.187 4.3791h4.053c-1.173.2346-1.52-3.0498-1.76-4.5877-.667-4.1185-1.387-4.327-3.36-4.4052l-.027-.0782c2.48-.7559 4.054-2.63269 4-4.90046-.08-3.0237-2.213-5.08294-7.2529-4.77015h-13.0934v18.74171zm4.72-14.90995h6.4c2.3733 0 4.0536.33886 4.0536 2.18957 0 1.95498-1.6536 2.21564-4.0536 2.21564h-6.4z" fill-rule="evenodd"/><path clip-rule="evenodd" d="m160 17.7773c0-1.4337-1.2-2.6066-2.667-2.6066-1.466 0-2.666 1.1729-2.666 2.6066 0 1.4336 1.2 2.6066 2.666 2.6066 1.467-.026 2.667-1.173 2.667-2.6066zm-.32 0c0 1.2772-1.067 2.2938-2.347 2.2938s-2.346-1.0166-2.346-2.2938c0-1.2773 1.04-2.2938 2.346-2.2938 1.28 0 2.347 1.0165 2.347 2.2938zm-3.333 1.3554h.373v-1.2251h.96c.613 0 .427.5213.507.8602l.053.3649h.453c-.16-.2606-.107-.3128-.133-.6777-.054-.4952-.053-.5474-.347-.7298.294-.2086.4-.3389.4-.7038-.026-.6517-.48-.7299-.933-.7299h-1.307v2.8412zm1.306-2.5284c.24 0 .587.0521.534.5474-.027.3649-.294.4431-.534.4431h-.933v-.9905z" fill-rule="evenodd"/><path d="m156.347 19.1327v-2.8673h1.306c.454 0 .907.0782.934.7298.026.365-.107.4953-.4.7038.293.1825.32.2346.346.7299.027.391-.026.4431.134.6777h-.454l-.053-.3649c-.053-.3389.107-.8602-.507-.8602h-.96v1.2251h-.346zm1.306-2.5285h-.933v.9906h.933c.267 0 .507-.0782.534-.4432.053-.4952-.294-.5474-.534-.5474z"/></g></svg>