<svg fill="none" height="47" viewBox="0 0 107 47" width="107" xmlns="http://www.w3.org/2000/svg" xmlns:xlink="http://www.w3.org/1999/xlink"><clipPath id="a"><path d="m.265381 0h106.469v47h-106.469z"/></clipPath><g clip-path="url(#a)" fill="#aca297"><path d="m57.6543 8.3125v30.3785h21.5083v-5.9179h-14.5105v-24.4606z"/><path d="m94.5801 27.1095h5.7069v5.3095c-1.0533.4043-3.1015.8047-5.0575.8047-6.3022 0-8.4043-3.2072-8.4043-9.7219 0-6.5146 2.0022-9.8759 8.3044-9.8759 3.5047 0 5.5064 1.1012 7.1554 3.2073l4.354-4.0081c-2.652-3.80791-7.3054-4.95913-11.6554-4.95913-9.8069 0-14.9602 5.35953-14.9602 15.58583 0 10.2262 4.6537 15.6936 14.9102 15.6936 4.7036 0 9.3074-1.2051 11.8094-2.9608v-14.735h-12.1591v5.6638z"/><path d="m23.7182 0c-12.9542 0-23.452819 10.5189-23.452819 23.5019 0 12.9831 10.498619 23.4981 23.452819 23.4981 12.9541 0 23.4527-10.5266 23.4527-23.4981s-10.4986-23.5019-23.4527-23.5019zm5.599 31.9455v1.8404h-6.5328v-20.6026h1.8637v18.7622zm8.2851 5.4481c-3.7122 3.7194-8.6464 5.7677-13.8841 5.7677-5.2378 0-10.1682-2.0445-13.88802-5.7677-3.70449-3.7116-5.73734-8.6515-5.73734-13.9032 0-10.8462 8.80396-19.67095 19.62146-19.67095.2306 0 .6956 0 .93.0154v1.83272c-.2114-.00385-.7148-.01155-.93-.01155-4.7497 0-9.2151 1.85197-12.5814 5.22478-3.36632 3.3728-5.21472 7.8507-5.21472 12.6096s1.85224 9.2406 5.21472 12.6095c3.3663 3.3652 7.8317 5.2171 12.5814 5.2171 9.4073 0 17.139-7.3539 17.7616-16.6292v-.2618h-12.1472v-1.8289h14.0109v.8933c0 5.2517-2.0367 10.1916-5.7411 13.9032zm-18.557-21.3997c0 1.5517-1.2643 2.8146-2.8168 2.8146s-2.8091-1.2668-2.8091-2.8146 1.2643-2.8145 2.8091-2.8145 2.8168 1.2629 2.8168 2.8145z"/></g></svg>