<svg fill="none" height="31" viewBox="0 0 95 31" width="95" xmlns="http://www.w3.org/2000/svg" xmlns:xlink="http://www.w3.org/1999/xlink"><clipPath id="a"><path d="m0 0h94.1747v30.2373h-94.1747z"/></clipPath><g clip-path="url(#a)"><path d="m36.1493 30.232h5.652v-30.23335591h-5.652zm44.3507-30.22935556v30.22935556h5.6546v-13.9814h7.4894v-3.6173h-7.4894v-9.00666h8.02v-3.62399556zm-21.0587 0v30.22935556h16.172v-3.6174h-10.52v-10.3186h9.1387v-3.62h-9.1387v-9.04936h9.992v-3.62399556zm-11.264 0-6.1773 14.89195556 7.8213 15.3374h5.8507l-8.6067-15.332 6.8934-14.89735556zm-21.444 0-6.6826 14.89735556v-14.89735556h-20.0507v30.23465556h20.0507v-15.1787l6.6826 15.1787h3.3414v-30.23465556z" fill="#aca297"/></g></svg>