<svg fill="none" height="38" viewBox="0 0 113 38" width="113" xmlns="http://www.w3.org/2000/svg" xmlns:xlink="http://www.w3.org/1999/xlink"><clipPath id="a"><path d="m.010742 0h112.859v37.5523h-112.859z"/></clipPath><g clip-path="url(#a)" fill="#aca297"><path d="m48.9322 15.9433c.8998-.2429 1.4877-.3284 2.0177-.5575 1.761-.7536 3.7097-1.278 5.1974-2.4042 2.4069-1.8244 4.5681-3.99395 6.7073-6.14137 1.5705-1.57607 1.3801-3.70694-.2264-5.27748-1.1206-1.095796-2.509-1.5319057-4.0188-1.5346659-6.2077-.0165611-12.4181-.0607241-18.6258.0358824-3.8642.0607245-7.2482 1.4214935-9.9946 4.2672535-2.9065 3.01136-5.8902 5.95098-8.8326 8.92918-2.2965 2.3241-4.604 4.6371-6.8591 6.9999-1.7996 1.8852-1.0626 4.2092 1.4961 4.7199 1.6975.3395 3.2183.069 4.535-1.2946 5.0152-5.1974 10.1078-10.3203 15.1506-15.49564 1.6313-1.67544 3.5413-2.52281 5.9013-2.48693 3.8173.0552 7.6347.01656 11.452.01656h1.5264c-2.382 2.92028-4.8 4.83581-8.5235 4.54881-2.4151-.185-4.8662-.0083-7.2924.149-1.2531.0828-2.2744.748-2.5918 2.1116-.3174 1.3745.3671 2.2302 1.4463 2.9865 4.0272 2.8237 8.0074 5.7163 12.0372 8.5373.7011.4913 1.5126.9025 2.3351 1.1233 1.4685.3975 3.5358-.6293 4.1127-1.8907.5659-1.2365.0469-2.3185-1.6395-3.5137-1.681-1.1924-3.3481-2.4096-5.3134-3.8284zm20.1797 1.2173c3.6214-3.453 7.1047-6.7266 10.5218-10.06644.8943-.87498 1.8328-1.25312 3.0666-1.23656 4.0464.04692 8.0929.0552 12.1393.01104.9964-.01104 2.0232-.15733 2.9727-.44439 1.1924-.36158 1.9542-1.25036 1.9101-2.56421-.0469-1.3663-.9109-2.197113-2.1474-2.561458-.737-.2152941-1.5402-.2732581-2.3158-.2760183-8.184-.02208146-16.3707-.02484165-24.5547-.01656109-.6845 0-1.3773.07728529-2.048.21805439-1.5844.333983-2.3821 1.294533-2.3765 2.757423.0055 1.40218.8749 2.40137 2.4372 2.72431.7314.15181 1.4795.21253 2.2219.3119.1463.19321.2926.38367.4389.57688-2.8319 2.62218-5.7439 5.16433-8.471 7.89133-2.2661 2.2662-2.0977 4.2507.3119 6.3706 2.5063 2.2053 5.41 3.7014 8.7167 4.1458 1.9266.2594 3.9332.2511 5.8626.0248 1.4105-.1656 2.244-1.5705 2.1419-2.8126-.1104-1.3498-1.1427-2.3848-2.6387-2.5753-.6349-.08-1.2863-.0386-1.9294-.069-2.1198-.0994-4.0409-.748-6.2656-2.4207zm20.8946 8.5124c.0718.0773.1408.1573.2126.2346.9798-.6045 2.106-1.0627 2.9147-1.8438 2.7464-2.6498 5.3796-5.4155 8.0542-8.1398 3.544-3.6103 7.096-7.21237 10.627-10.83649 1.501-1.54019 1.385-2.88716-.29-4.165125-1.753-1.335931-4.367-1.162039-5.91.405745-3.742 3.80354-7.4797 7.60984-11.217 11.41887-2.4814 2.5284-4.9987 5.018-7.4277 7.5961-1.9321 2.0508-1.3718 4.0519 1.3001 4.9297.5603.1849 1.1537.2705 1.7334.4029z"/><path d="m48.9323 15.9429c1.9653 1.4187 3.6324 2.636 5.3134 3.8284 1.6865 1.1979 2.2054 2.2799 1.6396 3.5137-.5769 1.2614-2.6443 2.2882-4.1127 1.8907-.8226-.2208-1.6341-.6321-2.3351-1.1234-4.0272-2.8236-8.0073-5.7136-12.0372-8.5372-1.0765-.7563-1.7638-1.612-1.4464-2.9866.3147-1.3635 1.3387-2.0287 2.5919-2.1115 2.4262-.1601 4.8772-.334 7.2924-.149 3.7235.287 6.1414-1.62856 8.5234-4.54884-.6873 0-1.1068 0-1.5264 0-3.8173 0-7.6346.03864-11.452-.01656-2.3599-.03312-4.27.81426-5.9013 2.48693-5.0401 5.17257-10.1326 10.29827-15.1506 15.49567-1.3166 1.3636-2.8403 1.634-4.535 1.2945-2.5587-.5106-3.2957-2.8347-1.496-4.7199 2.255-2.3655 4.5626-4.6757 6.859-6.9998 2.9424-2.9782 5.9262-5.91785 8.8326-8.92921 2.7437-2.84576 6.1304-4.206528 9.9919-4.2700119 6.2077-.0993668 12.4153-.0524436 18.6258-.0358825 1.5098.0027602 2.8982.4416304 4.0188 1.5346644 1.6064 1.57055 1.7941 3.70141.2263 5.27748-2.1391 2.15018-4.3003 4.31696-6.7072 6.14146-1.4878 1.1289-3.4365 1.6505-5.1975 2.4041-.5299.2263-1.1178.3146-2.0177.5575z"/><path d="m69.112 17.1602c2.2247 1.6727 4.1458 2.3213 6.2656 2.4207.6432.0303 1.2918-.0111 1.9294.069 1.496.1877 2.5283 1.2227 2.6387 2.5752.1022 1.2421-.7314 2.6471-2.1419 2.8127-1.9321.2263-3.9387.2346-5.8626-.0249-3.3039-.4444-6.2104-1.9404-8.7167-4.1458-2.4096-2.1198-2.578-4.1044-.3119-6.3705 2.7271-2.7271 8.9486-8.41304 8.9486-8.41304l-.9192-.0552s-1.4905-.16009-2.2219-.3119c-1.5623-.32571-2.4318-1.32489-2.4373-2.72431-.0055-1.4629.7922-2.423443 2.3765-2.757425.668-.1407698 1.3636-.218055 2.0481-.218055 8.184-.01104079 16.3707-.00828061 24.5546.0165611.7756 0 1.5789.0579639 2.3158.2760189 1.2366.364345 2.1005 1.19516 2.1474 2.56145.0442 1.31385-.7176 2.20263-1.91 2.56422-.9523.28706-1.9791.43335-2.9727.44439-4.0465.04416-8.0929.03588-12.1393-.01104-1.2338-.0138-2.1723.36434-3.0666 1.23656-3.4171 3.33987-6.9005 6.61337-10.5218 10.06637z"/><path d="m88.276 25.2697c-2.6277-1.002-3.235-2.8789-1.3001-4.9297 2.429-2.578 4.9463-5.0677 7.4277-7.596 3.7373-3.80634 7.4744-7.6154 11.2174-11.41894 1.543-1.567784 4.157-1.741676 5.91-.405746 1.675 1.277966 1.791 2.622176.289 4.165126-3.53 3.62412-7.082 7.22896-10.626 10.83646-2.675 2.7243-5.3109 5.49-8.0546 8.1398-1.289 1.2449-3.0307 1.9046-4.8607 1.2062z"/><path d="m.0107422 37.5524s8.2446778-8.5097 8.5179378-8.5097 79.46302.2291 79.46302.2291z"/></g></svg>