<svg fill="none" height="52" viewBox="0 0 52 52" width="52" xmlns="http://www.w3.org/2000/svg" xmlns:xlink="http://www.w3.org/1999/xlink"><clipPath id="a"><path d="m0 0h52v52h-52z"/></clipPath><g clip-path="url(#a)"><path d="m50.3742 0h-3.2496v3.2244h3.2496zm-11.3701 22.5817v-6.4601l.0016.002h6.4971v6.4484h6.4972v2.0438c0 2.3629-.2023 5.1625-.6679 7.3606-.2608 1.229-.6561 2.45-1.1196 3.6226-.4749 1.1997-1.0221 2.3489-1.6177 3.3788-.7843 1.3638-1.6949 2.6521-2.7198 3.8484l-.0553.0637-.091.1056c-.2506.2919-.4984.5805-.771.8623-.3182.3332-.6453.6578-.9811.9735-4.1588 3.9741-9.5774 6.4564-15.2429 7.0264-.6817.0693-2.0504.1411-2.7337.1411-.6853-.002-2.052-.0718-2.7337-.1411-5.6655-.57-11.0841-3.0543-15.24246-7.0264-.33595-.3157-.66324-.6403-.9815-.9735-.286-.2939-.54397-.5954-.80437-.9002l-.00122-.0008-.11172-.1306c-1.0252-1.1961-1.93576-2.4845-2.71984-3.8484-.59556-1.0319-1.14278-2.1791-1.61769-3.3788-.46353-1.173-.858812-2.3936-1.119625-3.6222-.465562-2.201-.667875-4.9981-.667875-7.3606v-24.212293h12.9959v22.177793s0 1.7003.0216 2.2566l.0048.1298v.0008c.0277.7195.0541 1.4245.1296 2.1259.2141 1.9913.6582 3.8811 1.573 5.479.2649.4615.5334.9098.8548 1.3346 1.9549 2.5867 4.9298 4.5285 8.6409 5.0694.4416.0637 1.3337.1197 1.7794.1197s1.3374-.056 1.7794-.1197c3.7111-.5409 6.686-2.4827 8.6409-5.0694.323-.4248.5899-.8731.8548-1.3346.9148-1.5979 1.3589-3.4873 1.573-5.479.0755-.7026.1023-1.4088.1296-2.13l.0048-.1265c.0216-.5563.0216-2.2566.0216-2.2566zm1.6217-17.74449h4.875v4.8356h6.4992v6.44879h-6.4992v-6.44678h-4.875v-4.83721z" fill="#aca297"/></g></svg>